ffmpeg version N-99837-g1c430f6 Copyright (c) 2000-2020 the FFmpeg developers
  built with gcc 9 (Ubuntu 9.3.0-17ubuntu1~20.04)
  configuration: --prefix=/home/worca/ffmpeg_build --pkg-config-flags=--static --extra-cflags=-I/home/worca/ffmpeg_build/include --extra-ldflags=-L/home/worca/ffmpeg_build/lib --extra-libs='-lpthread -lm' --bindir=/home/worca/bin --enable-gpl --enable-gnutls --enable-libaom --enable-libass --enable-libfdk-aac --enable-libfreetype --enable-libmp3lame --enable-libopus --enable-libsvtav1 --enable-libvorbis --enable-libvpx --enable-libx264 --enable-libx265 --enable-nonfree
  libavutil      56. 60.100 / 56. 60.100
  libavcodec     58.112.101 / 58.112.101
  libavformat    58. 64.100 / 58. 64.100
  libavdevice    58. 11.102 / 58. 11.102
  libavfilter     7. 88.100 /  7. 88.100
  libswscale      5.  8.100 /  5.  8.100
  libswresample   3.  8.100 /  3.  8.100
  libpostproc    55.  8.100 / 55.  8.100
Input #0, mov,mp4,m4a,3gp,3g2,mj2, from 'BBB_30seg.mp4':
  Metadata:
    major_brand     : isom
    minor_version   : 512
    compatible_brands: isomiso2avc1mp41
    encoder         : Lavf56.25.101
  Duration: 00:00:30.02, start: 0.000000, bitrate: 6053 kb/s
    Stream #0:0(und): Video: h264 (High) (avc1 / 0x31637661), yuv420p, 1920x1080 [SAR 1:1 DAR 16:9], 5860 kb/s, 24 fps, 24 tbr, 12288 tbn, 48 tbc (default)
    Metadata:
      handler_name    : VideoHandler
    Stream #0:1(und): Audio: aac (LC) (mp4a / 0x6134706D), 48000 Hz, 5.1, fltp, 192 kb/s (default)
    Metadata:
      handler_name    : SoundHandler
At least one output file must be specified
